<svg xmlns="http://www.w3.org/2000/svg" viewBox="0 0 16 16" id="Plane--Streamline-Font-Awesome" height="16" width="16"><desc>Plane Streamline Icon: https://streamlinehq.com</desc><!--! Font Awesome Free 6.5.2 by @fontawesome - https://fontawesome.com License - https://fontawesome.com/license/free (Icons: CC BY 4.0, Fonts: SIL OFL 1.1, Code: MIT License) Copyright 2024 Fonticons, Inc.--><path d="M13.289277777777777 6.257777777777777c0.9309999999999999 0 2.550722222222222 0.7894444444444444 2.550722222222222 1.7422222222222221 0 0.98 -1.6197222222222223 1.7422222222222221 -2.550722222222222 1.7422222222222221H10.115166666666667l-2.735833333333333 4.788388888888889c-0.15516666666666667 0.27222222222222225 -0.4437222222222222 0.43827777777777777 -0.7567777777777778 0.43827777777777777h-1.5298888888888889c-0.2885555555555555 0 -0.49816666666666665 -0.2776666666666667 -0.4192222222222222 -0.5553333333333333l1.333888888888889 -4.671333333333333H3.2088888888888887l-1.176 1.5679999999999998c-0.08166666666666667 0.10888888888888888 -0.21233333333333332 0.17422222222222222 -0.34844444444444445 0.17422222222222222H0.5411111111111111c-0.21233333333333332 0 -0.3811111111111111 -0.1715 -0.3811111111111111 -0.3811111111111111 0 -0.035388888888888886 0.0054444444444444445 -0.07077777777777777 0.01361111111111111 -0.10616666666666666L1.031111111111111 8 0.1736111111111111 5.002833333333333c-0.010888888888888889 -0.035388888888888886 -0.01361111111111111 -0.07077777777777777 -0.01361111111111111 -0.10616666666666666 0 -0.21233333333333332 0.1715 -0.3811111111111111 0.3811111111111111 -0.3811111111111111h1.143333333333333c0.13611111111111113 0 0.2667777777777777 0.06533333333333333 0.34844444444444445 0.17422222222222222l1.176 1.5679999999999998h2.8011666666666666l-1.333888888888889 -4.671333333333333c-0.08166666666666667 -0.2776666666666667 0.12794444444444444 -0.5553333333333333 0.4165 -0.5553333333333333h1.5298888888888889c0.31305555555555553 0 0.6016111111111111 0.16877777777777775 0.7567777777777778 0.43827777777777777l2.735833333333333 4.788388888888889h3.174111111111111Z" fill="#000000" stroke-width="0.0278"></path></svg>