<svg xmlns="http://www.w3.org/2000/svg" viewBox="0 0 16 16" id="Plane-Departure--Streamline-Font-Awesome" height="16" width="16"><desc>Plane Departure Streamline Icon: https://streamlinehq.com</desc><!--! Font Awesome Free 6.5.2 by @fontawesome - https://fontawesome.com License - https://fontawesome.com/license/free (Icons: CC BY 4.0, Fonts: SIL OFL 1.1, Code: MIT License) Copyright 2024 Fonticons, Inc.--><path d="m9.4945 4.0807425 -4.77505 -1.7909500000000003c-0.40915 -0.1519 -0.8624 -0.12985 -1.2519500000000001 0.06615l-1.12455 0.56105c-0.27195 0.13720000000000002 -0.29155000000000003 0.51695 -0.03675 0.6811l3.59905 2.3152500000000003 -2.41325 1.23235 -1.4259000000000002 -0.6345500000000001c-0.21315 -0.09555000000000001 -0.4606 -0.09065000000000001 -0.6688500000000001 0.0147l-0.7889 0.39445c-0.22785000000000002 0.11515 -0.2891 0.41159999999999997 -0.12250000000000001 0.6051500000000001l1.7909500000000003 2.0898499999999998c0.14945 0.17395000000000002 0.3675 0.27440000000000003 0.59535 0.27440000000000003h3.37365c0.12250000000000001 0 0.24255000000000002 -0.0294 0.35035 -0.0833l6.686050000000001 -3.3418c1.13925 -0.57085 2.0212499999999998 -1.55085 2.4696000000000002 -2.744 0.23275 -0.6174000000000001 -0.22540000000000002 -1.2789000000000001 -0.8869 -1.2789000000000001h-1.4063c-0.4949 0 -0.9849000000000001 0.1176 -1.4259000000000002 0.343l-2.5382000000000002 1.2960500000000001ZM0.16000000000000003 13.0256925c0 0.43365000000000004 0.35035 0.784 0.784 0.784h14.112000000000002c0.43365000000000004 0 0.784 -0.35035 0.784 -0.784s-0.35035 -0.784 -0.784 -0.784H0.944c-0.43365000000000004 0 -0.784 0.35035 -0.784 0.784Z" fill="#ffffff" stroke-width="0.025"></path></svg>